<?xml version="1.0" encoding="UTF-8" standalone="no"?>
<!DOCTYPE svg PUBLIC "-//W3C//DTD SVG 1.1//EN"
 "http://www.w3.org/Graphics/SVG/1.1/DTD/svg11.dtd">
<!-- Generated by graphviz version 12.2.0 (20241103.1931)
 -->
<!-- Title: jinaai/jina&#45;embeddings&#45;v2&#45;small&#45;en Pages: 1 -->
<svg width="542pt" height="1663pt"
 viewBox="0.00 0.00 542.25 1662.75" xmlns="http://www.w3.org/2000/svg" xmlns:xlink="http://www.w3.org/1999/xlink">
<g id="graph0" class="graph" transform="scale(1 1) rotate(0) translate(4 1658.75)">
<title>jinaai/jina&#45;embeddings&#45;v2&#45;small&#45;en</title>
<polygon fill="white" stroke="none" points="-4,4 -4,-1658.75 538.25,-1658.75 538.25,4 -4,4"/>
<g id="clust1" class="cluster">
<title>cluster_2</title>
<polygon fill="none" stroke="black" stroke-dasharray="5,2" points="146,-1172 146,-1592.25 340,-1592.25 340,-1172 146,-1172"/>
<text text-anchor="middle" x="203.12" y="-1576.85" font-family="Times New Roman,serif" font-size="12.00">JinaBertEmbeddings</text>
</g>
<g id="clust2" class="cluster">
<title>cluster_3</title>
<polygon fill="none" stroke="black" stroke-dasharray="5,2" points="155,-1478.25 155,-1562 331,-1562 331,-1478.25 155,-1478.25"/>
<text text-anchor="middle" x="190.38" y="-1546.6" font-family="Times New Roman,serif" font-size="12.00">Embedding</text>
</g>
<g id="clust4" class="cluster">
<title>cluster_5</title>
<polygon fill="none" stroke="black" stroke-dasharray="5,2" points="154,-1282.75 154,-1366.5 332,-1366.5 332,-1282.75 154,-1282.75"/>
<text text-anchor="middle" x="189.75" y="-1351.1" font-family="Times New Roman,serif" font-size="12.00">LayerNorm</text>
</g>
<g id="clust5" class="cluster">
<title>cluster_6</title>
<polygon fill="none" stroke="black" stroke-dasharray="5,2" points="162,-1180 162,-1263.75 324,-1263.75 324,-1180 162,-1180"/>
<text text-anchor="middle" x="189.88" y="-1248.35" font-family="Times New Roman,serif" font-size="12.00">Dropout</text>
</g>
<g id="clust6" class="cluster">
<title>cluster_7</title>
<polygon fill="none" stroke="black" stroke-dasharray="5,2" points="8,-394.75 8,-1155 412,-1155 412,-394.75 8,-394.75"/>
<text text-anchor="middle" x="55.38" y="-1139.6" font-family="Times New Roman,serif" font-size="12.00">JinaBertEncoder</text>
</g>
<g id="clust7" class="cluster">
<title>cluster_8</title>
<polygon fill="none" stroke="black" stroke-dasharray="5,2" points="16,-958.5 16,-1124.75 270,-1124.75 270,-958.5 16,-958.5"/>
<text text-anchor="middle" x="57.38" y="-1109.35" font-family="Times New Roman,serif" font-size="12.00">JinaBertLayer</text>
</g>
<g id="clust8" class="cluster">
<title>cluster_9</title>
<polygon fill="none" stroke="black" stroke-dasharray="5,2" points="150,-773.25 150,-939.5 404,-939.5 404,-773.25 150,-773.25"/>
<text text-anchor="middle" x="191.38" y="-924.1" font-family="Times New Roman,serif" font-size="12.00">JinaBertLayer</text>
</g>
<g id="clust9" class="cluster">
<title>cluster_10</title>
<polygon fill="none" stroke="black" stroke-dasharray="5,2" points="150,-588 150,-754.25 404,-754.25 404,-588 150,-588"/>
<text text-anchor="middle" x="191.38" y="-738.85" font-family="Times New Roman,serif" font-size="12.00">JinaBertLayer</text>
</g>
<g id="clust10" class="cluster">
<title>cluster_11</title>
<polygon fill="none" stroke="black" stroke-dasharray="5,2" points="150,-402.75 150,-569 404,-569 404,-402.75 150,-402.75"/>
<text text-anchor="middle" x="191.38" y="-553.6" font-family="Times New Roman,serif" font-size="12.00">JinaBertLayer</text>
</g>
<g id="clust11" class="cluster">
<title>cluster_12</title>
<polygon fill="none" stroke="black" stroke-dasharray="5,2" points="70,-8 70,-377.75 252,-377.75 252,-8 70,-8"/>
<text text-anchor="middle" x="112.88" y="-362.35" font-family="Times New Roman,serif" font-size="12.00">JinaBertPooler</text>
</g>
<g id="clust12" class="cluster">
<title>cluster_13</title>
<polygon fill="none" stroke="black" stroke-dasharray="5,2" points="86,-191.25 86,-275 236,-275 236,-191.25 86,-191.25"/>
<text text-anchor="middle" x="109.38" y="-259.6" font-family="Times New Roman,serif" font-size="12.00">Linear</text>
</g>
<g id="clust13" class="cluster">
<title>cluster_14</title>
<polygon fill="none" stroke="black" stroke-dasharray="5,2" points="86,-16 86,-172.25 236,-172.25 236,-16 86,-16"/>
<text text-anchor="middle" x="106" y="-156.85" font-family="Times New Roman,serif" font-size="12.00">Tanh</text>
</g>
<!-- 0 -->
<g id="node1" class="node">
<title>0</title>
<polygon fill="lightyellow" stroke="none" points="223.88,-1654.75 128.12,-1654.75 128.12,-1619.25 223.88,-1619.25 223.88,-1654.75"/>
<polygon fill="none" stroke="black" points="128.12,-1619.25 128.12,-1654.75 189.88,-1654.75 189.88,-1619.25 128.12,-1619.25"/>
<text text-anchor="start" x="133.12" y="-1640.25" font-family="Linux libertine" font-size="10.00">input&#45;tensor</text>
<text text-anchor="start" x="142.5" y="-1627.5" font-family="Linux libertine" font-size="10.00">depth:0</text>
<polygon fill="none" stroke="black" points="189.88,-1619.25 189.88,-1654.75 223.88,-1654.75 223.88,-1619.25 189.88,-1619.25"/>
<text text-anchor="start" x="194.88" y="-1633.88" font-family="Linux libertine" font-size="10.00">(1, 5)</text>
</g>
<!-- 7 -->
<g id="node8" class="node">
<title>7</title>
<polygon fill="aliceblue" stroke="none" points="322.88,-1531.75 163.12,-1531.75 163.12,-1486.25 322.88,-1486.25 322.88,-1531.75"/>
<polygon fill="none" stroke="black" points="163.12,-1486.25 163.12,-1531.75 220.38,-1531.75 220.38,-1486.25 163.12,-1486.25"/>
<text text-anchor="start" x="168.12" y="-1512.25" font-family="Linux libertine" font-size="10.00">embedding</text>
<text text-anchor="start" x="175.25" y="-1499.5" font-family="Linux libertine" font-size="10.00">depth:3</text>
<polygon fill="none" stroke="black" points="220.38,-1509 220.38,-1531.75 264.12,-1531.75 264.12,-1509 220.38,-1509"/>
<text text-anchor="start" x="229.88" y="-1517.25" font-family="Linux libertine" font-size="10.00">input:</text>
<polygon fill="none" stroke="black" points="264.12,-1509 264.12,-1531.75 322.88,-1531.75 322.88,-1509 264.12,-1509"/>
<text text-anchor="start" x="280" y="-1517.25" font-family="Linux libertine" font-size="10.00">(1, 5) </text>
<polygon fill="none" stroke="black" points="220.38,-1486.25 220.38,-1509 264.12,-1509 264.12,-1486.25 220.38,-1486.25"/>
<text text-anchor="start" x="225.38" y="-1494.5" font-family="Linux libertine" font-size="10.00">output: </text>
<polygon fill="none" stroke="black" points="264.12,-1486.25 264.12,-1509 322.88,-1509 322.88,-1486.25 264.12,-1486.25"/>
<text text-anchor="start" x="269.12" y="-1494.5" font-family="Linux libertine" font-size="10.00">(1, 5, 512) </text>
</g>
<!-- 0&#45;&gt;7 -->
<g id="edge5" class="edge">
<title>0&#45;&gt;7</title>
<path fill="none" stroke="black" d="M184.9,-1619.27C195.42,-1599.47 213.18,-1566.09 226.29,-1541.42"/>
<polygon fill="black" stroke="black" points="229.28,-1543.25 230.89,-1532.78 223.1,-1539.96 229.28,-1543.25"/>
</g>
<!-- 1 -->
<g id="node2" class="node">
<title>1</title>
<polygon fill="lightyellow" stroke="none" points="337.88,-1654.75 242.12,-1654.75 242.12,-1619.25 337.88,-1619.25 337.88,-1654.75"/>
<polygon fill="none" stroke="black" points="242.12,-1619.25 242.12,-1654.75 303.88,-1654.75 303.88,-1619.25 242.12,-1619.25"/>
<text text-anchor="start" x="247.12" y="-1640.25" font-family="Linux libertine" font-size="10.00">input&#45;tensor</text>
<text text-anchor="start" x="256.5" y="-1627.5" font-family="Linux libertine" font-size="10.00">depth:0</text>
<polygon fill="none" stroke="black" points="303.88,-1619.25 303.88,-1654.75 337.88,-1654.75 337.88,-1619.25 303.88,-1619.25"/>
<text text-anchor="start" x="308.88" y="-1633.88" font-family="Linux libertine" font-size="10.00">(1, 5)</text>
</g>
<!-- 1&#45;&gt;7 -->
<g id="edge7" class="edge">
<title>1&#45;&gt;7</title>
<path fill="none" stroke="black" d="M283.76,-1619.27C276.44,-1599.65 264.14,-1566.68 254.97,-1542.08"/>
<polygon fill="black" stroke="black" points="258.3,-1541.01 251.53,-1532.86 251.74,-1543.45 258.3,-1541.01"/>
</g>
<!-- 2 -->
<g id="node3" class="node">
<title>2</title>
<polygon fill="lightyellow" stroke="none" points="498.88,-1654.75 403.12,-1654.75 403.12,-1619.25 498.88,-1619.25 498.88,-1654.75"/>
<polygon fill="none" stroke="black" points="403.12,-1619.25 403.12,-1654.75 464.88,-1654.75 464.88,-1619.25 403.12,-1619.25"/>
<text text-anchor="start" x="408.12" y="-1640.25" font-family="Linux libertine" font-size="10.00">input&#45;tensor</text>
<text text-anchor="start" x="417.5" y="-1627.5" font-family="Linux libertine" font-size="10.00">depth:0</text>
<polygon fill="none" stroke="black" points="464.88,-1619.25 464.88,-1654.75 498.88,-1654.75 498.88,-1619.25 464.88,-1619.25"/>
<text text-anchor="start" x="469.88" y="-1633.88" font-family="Linux libertine" font-size="10.00">(1, 5)</text>
</g>
<!-- 3 -->
<g id="node4" class="node">
<title>3</title>
<polygon fill="aliceblue" stroke="none" points="534.25,-1531.75 367.75,-1531.75 367.75,-1486.25 534.25,-1486.25 534.25,-1531.75"/>
<polygon fill="none" stroke="black" points="367.75,-1486.25 367.75,-1531.75 431,-1531.75 431,-1486.25 367.75,-1486.25"/>
<text text-anchor="start" x="372.75" y="-1512.25" font-family="Linux libertine" font-size="10.00">__getitem__</text>
<text text-anchor="start" x="382.88" y="-1499.5" font-family="Linux libertine" font-size="10.00">depth:1</text>
<polygon fill="none" stroke="black" points="431,-1509 431,-1531.75 474.75,-1531.75 474.75,-1509 431,-1509"/>
<text text-anchor="start" x="440.5" y="-1517.25" font-family="Linux libertine" font-size="10.00">input:</text>
<polygon fill="none" stroke="black" points="474.75,-1509 474.75,-1531.75 534.25,-1531.75 534.25,-1509 474.75,-1509"/>
<text text-anchor="start" x="491" y="-1517.25" font-family="Linux libertine" font-size="10.00">(1, 5) </text>
<polygon fill="none" stroke="black" points="431,-1486.25 431,-1509 474.75,-1509 474.75,-1486.25 431,-1486.25"/>
<text text-anchor="start" x="436" y="-1494.5" font-family="Linux libertine" font-size="10.00">output: </text>
<polygon fill="none" stroke="black" points="474.75,-1486.25 474.75,-1509 534.25,-1509 534.25,-1486.25 474.75,-1486.25"/>
<text text-anchor="start" x="479.75" y="-1494.5" font-family="Linux libertine" font-size="10.00">(1, 1, 1, 5) </text>
</g>
<!-- 2&#45;&gt;3 -->
<g id="edge1" class="edge">
<title>2&#45;&gt;3</title>
<path fill="none" stroke="black" d="M451,-1619.27C451,-1599.82 451,-1567.27 451,-1542.75"/>
<polygon fill="black" stroke="black" points="454.5,-1542.96 451,-1532.96 447.5,-1542.96 454.5,-1542.96"/>
</g>
<!-- 4 -->
<g id="node5" class="node">
<title>4</title>
<polygon fill="aliceblue" stroke="none" points="524.12,-1439 377.88,-1439 377.88,-1393.5 524.12,-1393.5 524.12,-1439"/>
<polygon fill="none" stroke="black" points="377.88,-1393.5 377.88,-1439 420.88,-1439 420.88,-1393.5 377.88,-1393.5"/>
<text text-anchor="start" x="395.25" y="-1419.5" font-family="Linux libertine" font-size="10.00">to</text>
<text text-anchor="start" x="382.88" y="-1406.75" font-family="Linux libertine" font-size="10.00">depth:1</text>
<polygon fill="none" stroke="black" points="420.88,-1416.25 420.88,-1439 464.62,-1439 464.62,-1416.25 420.88,-1416.25"/>
<text text-anchor="start" x="430.38" y="-1424.5" font-family="Linux libertine" font-size="10.00">input:</text>
<polygon fill="none" stroke="black" points="464.62,-1416.25 464.62,-1439 524.12,-1439 524.12,-1416.25 464.62,-1416.25"/>
<text text-anchor="start" x="469.62" y="-1424.5" font-family="Linux libertine" font-size="10.00">(1, 1, 1, 5) </text>
<polygon fill="none" stroke="black" points="420.88,-1393.5 420.88,-1416.25 464.62,-1416.25 464.62,-1393.5 420.88,-1393.5"/>
<text text-anchor="start" x="425.88" y="-1401.75" font-family="Linux libertine" font-size="10.00">output: </text>
<polygon fill="none" stroke="black" points="464.62,-1393.5 464.62,-1416.25 524.12,-1416.25 524.12,-1393.5 464.62,-1393.5"/>
<text text-anchor="start" x="469.62" y="-1401.75" font-family="Linux libertine" font-size="10.00">(1, 1, 1, 5) </text>
</g>
<!-- 3&#45;&gt;4 -->
<g id="edge2" class="edge">
<title>3&#45;&gt;4</title>
<path fill="none" stroke="black" d="M451,-1486.49C451,-1475.72 451,-1462.44 451,-1450.4"/>
<polygon fill="black" stroke="black" points="454.5,-1450.43 451,-1440.43 447.5,-1450.43 454.5,-1450.43"/>
</g>
<!-- 5 -->
<g id="node6" class="node">
<title>5</title>
<polygon fill="aliceblue" stroke="none" points="527.5,-1336.25 374.5,-1336.25 374.5,-1290.75 527.5,-1290.75 527.5,-1336.25"/>
<polygon fill="none" stroke="black" points="374.5,-1290.75 374.5,-1336.25 424.25,-1336.25 424.25,-1290.75 374.5,-1290.75"/>
<text text-anchor="start" x="379.5" y="-1316.75" font-family="Linux libertine" font-size="10.00">__rsub__</text>
<text text-anchor="start" x="382.88" y="-1304" font-family="Linux libertine" font-size="10.00">depth:1</text>
<polygon fill="none" stroke="black" points="424.25,-1313.5 424.25,-1336.25 468,-1336.25 468,-1313.5 424.25,-1313.5"/>
<text text-anchor="start" x="433.75" y="-1321.75" font-family="Linux libertine" font-size="10.00">input:</text>
<polygon fill="none" stroke="black" points="468,-1313.5 468,-1336.25 527.5,-1336.25 527.5,-1313.5 468,-1313.5"/>
<text text-anchor="start" x="473" y="-1321.75" font-family="Linux libertine" font-size="10.00">(1, 1, 1, 5) </text>
<polygon fill="none" stroke="black" points="424.25,-1290.75 424.25,-1313.5 468,-1313.5 468,-1290.75 424.25,-1290.75"/>
<text text-anchor="start" x="429.25" y="-1299" font-family="Linux libertine" font-size="10.00">output: </text>
<polygon fill="none" stroke="black" points="468,-1290.75 468,-1313.5 527.5,-1313.5 527.5,-1290.75 468,-1290.75"/>
<text text-anchor="start" x="473" y="-1299" font-family="Linux libertine" font-size="10.00">(1, 1, 1, 5) </text>
</g>
<!-- 4&#45;&gt;5 -->
<g id="edge3" class="edge">
<title>4&#45;&gt;5</title>
<path fill="none" stroke="black" d="M451,-1393.88C451,-1380.35 451,-1362.58 451,-1347.29"/>
<polygon fill="black" stroke="black" points="454.5,-1347.7 451,-1337.7 447.5,-1347.7 454.5,-1347.7"/>
</g>
<!-- 6 -->
<g id="node7" class="node">
<title>6</title>
<polygon fill="aliceblue" stroke="none" points="524.12,-1233.5 377.88,-1233.5 377.88,-1188 524.12,-1188 524.12,-1233.5"/>
<polygon fill="none" stroke="black" points="377.88,-1188 377.88,-1233.5 420.88,-1233.5 420.88,-1188 377.88,-1188"/>
<text text-anchor="start" x="391.5" y="-1214" font-family="Linux libertine" font-size="10.00">mul</text>
<text text-anchor="start" x="382.88" y="-1201.25" font-family="Linux libertine" font-size="10.00">depth:1</text>
<polygon fill="none" stroke="black" points="420.88,-1210.75 420.88,-1233.5 464.62,-1233.5 464.62,-1210.75 420.88,-1210.75"/>
<text text-anchor="start" x="430.38" y="-1219" font-family="Linux libertine" font-size="10.00">input:</text>
<polygon fill="none" stroke="black" points="464.62,-1210.75 464.62,-1233.5 524.12,-1233.5 524.12,-1210.75 464.62,-1210.75"/>
<text text-anchor="start" x="469.62" y="-1219" font-family="Linux libertine" font-size="10.00">(1, 1, 1, 5) </text>
<polygon fill="none" stroke="black" points="420.88,-1188 420.88,-1210.75 464.62,-1210.75 464.62,-1188 420.88,-1188"/>
<text text-anchor="start" x="425.88" y="-1196.25" font-family="Linux libertine" font-size="10.00">output: </text>
<polygon fill="none" stroke="black" points="464.62,-1188 464.62,-1210.75 524.12,-1210.75 524.12,-1188 464.62,-1188"/>
<text text-anchor="start" x="469.62" y="-1196.25" font-family="Linux libertine" font-size="10.00">(1, 1, 1, 5) </text>
</g>
<!-- 5&#45;&gt;6 -->
<g id="edge4" class="edge">
<title>5&#45;&gt;6</title>
<path fill="none" stroke="black" d="M451,-1291.13C451,-1277.6 451,-1259.83 451,-1244.54"/>
<polygon fill="black" stroke="black" points="454.5,-1244.95 451,-1234.95 447.5,-1244.95 454.5,-1244.95"/>
</g>
<!-- 11 -->
<g id="node12" class="node">
<title>11</title>
<polygon fill="#c1ffc1" stroke="none" points="262.25,-1094.5 23.75,-1094.5 23.75,-1049 262.25,-1049 262.25,-1094.5"/>
<polygon fill="none" stroke="black" points="23.75,-1049 23.75,-1094.5 107.25,-1094.5 107.25,-1049 23.75,-1049"/>
<text text-anchor="start" x="28.75" y="-1075" font-family="Linux libertine" font-size="10.00">JinaBertAttention</text>
<text text-anchor="start" x="49" y="-1062.25" font-family="Linux libertine" font-size="10.00">depth:3</text>
<polygon fill="none" stroke="black" points="107.25,-1071.75 107.25,-1094.5 151,-1094.5 151,-1071.75 107.25,-1071.75"/>
<text text-anchor="start" x="116.75" y="-1080" font-family="Linux libertine" font-size="10.00">input:</text>
<polygon fill="none" stroke="black" points="151,-1071.75 151,-1094.5 262.25,-1094.5 262.25,-1071.75 151,-1071.75"/>
<text text-anchor="start" x="156" y="-1080" font-family="Linux libertine" font-size="10.00">(1, 5, 512), (1, 1, 1, 5) </text>
<polygon fill="none" stroke="black" points="107.25,-1049 107.25,-1071.75 151,-1071.75 151,-1049 107.25,-1049"/>
<text text-anchor="start" x="112.25" y="-1057.25" font-family="Linux libertine" font-size="10.00">output: </text>
<polygon fill="none" stroke="black" points="151,-1049 151,-1071.75 262.25,-1071.75 262.25,-1049 151,-1049"/>
<text text-anchor="start" x="182.25" y="-1057.25" font-family="Linux libertine" font-size="10.00">(1, 5, 512) </text>
</g>
<!-- 6&#45;&gt;11 -->
<g id="edge11" class="edge">
<title>6&#45;&gt;11</title>
<path fill="none" stroke="black" d="M381.51,-1188.02C364.07,-1182.68 345.37,-1177.05 328,-1172 300.56,-1164.03 291.99,-1166.87 266,-1155 234.65,-1140.68 202.37,-1118.77 178.75,-1101.17"/>
<polygon fill="black" stroke="black" points="181.11,-1098.57 171.03,-1095.32 176.89,-1104.15 181.11,-1098.57"/>
</g>
<!-- 13 -->
<g id="node14" class="node">
<title>13</title>
<polygon fill="#c1ffc1" stroke="none" points="396.25,-909.25 157.75,-909.25 157.75,-863.75 396.25,-863.75 396.25,-909.25"/>
<polygon fill="none" stroke="black" points="157.75,-863.75 157.75,-909.25 241.25,-909.25 241.25,-863.75 157.75,-863.75"/>
<text text-anchor="start" x="162.75" y="-889.75" font-family="Linux libertine" font-size="10.00">JinaBertAttention</text>
<text text-anchor="start" x="183" y="-877" font-family="Linux libertine" font-size="10.00">depth:3</text>
<polygon fill="none" stroke="black" points="241.25,-886.5 241.25,-909.25 285,-909.25 285,-886.5 241.25,-886.5"/>
<text text-anchor="start" x="250.75" y="-894.75" font-family="Linux libertine" font-size="10.00">input:</text>
<polygon fill="none" stroke="black" points="285,-886.5 285,-909.25 396.25,-909.25 396.25,-886.5 285,-886.5"/>
<text text-anchor="start" x="290" y="-894.75" font-family="Linux libertine" font-size="10.00">(1, 5, 512), (1, 1, 1, 5) </text>
<polygon fill="none" stroke="black" points="241.25,-863.75 241.25,-886.5 285,-886.5 285,-863.75 241.25,-863.75"/>
<text text-anchor="start" x="246.25" y="-872" font-family="Linux libertine" font-size="10.00">output: </text>
<polygon fill="none" stroke="black" points="285,-863.75 285,-886.5 396.25,-886.5 396.25,-863.75 285,-863.75"/>
<text text-anchor="start" x="316.25" y="-872" font-family="Linux libertine" font-size="10.00">(1, 5, 512) </text>
</g>
<!-- 6&#45;&gt;13 -->
<g id="edge14" class="edge">
<title>6&#45;&gt;13</title>
<path fill="none" stroke="black" d="M449.67,-1188.09C446.97,-1156.13 439,-1095.14 416,-1049 389.71,-996.27 342.33,-946.64 310.28,-916.67"/>
<polygon fill="black" stroke="black" points="312.92,-914.34 303.19,-910.14 308.18,-919.49 312.92,-914.34"/>
</g>
<!-- 15 -->
<g id="node16" class="node">
<title>15</title>
<polygon fill="#c1ffc1" stroke="none" points="396.25,-724 157.75,-724 157.75,-678.5 396.25,-678.5 396.25,-724"/>
<polygon fill="none" stroke="black" points="157.75,-678.5 157.75,-724 241.25,-724 241.25,-678.5 157.75,-678.5"/>
<text text-anchor="start" x="162.75" y="-704.5" font-family="Linux libertine" font-size="10.00">JinaBertAttention</text>
<text text-anchor="start" x="183" y="-691.75" font-family="Linux libertine" font-size="10.00">depth:3</text>
<polygon fill="none" stroke="black" points="241.25,-701.25 241.25,-724 285,-724 285,-701.25 241.25,-701.25"/>
<text text-anchor="start" x="250.75" y="-709.5" font-family="Linux libertine" font-size="10.00">input:</text>
<polygon fill="none" stroke="black" points="285,-701.25 285,-724 396.25,-724 396.25,-701.25 285,-701.25"/>
<text text-anchor="start" x="290" y="-709.5" font-family="Linux libertine" font-size="10.00">(1, 5, 512), (1, 1, 1, 5) </text>
<polygon fill="none" stroke="black" points="241.25,-678.5 241.25,-701.25 285,-701.25 285,-678.5 241.25,-678.5"/>
<text text-anchor="start" x="246.25" y="-686.75" font-family="Linux libertine" font-size="10.00">output: </text>
<polygon fill="none" stroke="black" points="285,-678.5 285,-701.25 396.25,-701.25 396.25,-678.5 285,-678.5"/>
<text text-anchor="start" x="316.25" y="-686.75" font-family="Linux libertine" font-size="10.00">(1, 5, 512) </text>
</g>
<!-- 6&#45;&gt;15 -->
<g id="edge17" class="edge">
<title>6&#45;&gt;15</title>
<path fill="none" stroke="black" d="M455.89,-1188.05C461.52,-1161.14 470,-1113.81 470,-1072.75 470,-1072.75 470,-1072.75 470,-803 470,-765.93 441.68,-742.48 406.73,-727.65"/>
<polygon fill="black" stroke="black" points="408.2,-724.47 397.62,-724.06 405.64,-730.98 408.2,-724.47"/>
</g>
<!-- 17 -->
<g id="node18" class="node">
<title>17</title>
<polygon fill="#c1ffc1" stroke="none" points="396.25,-538.75 157.75,-538.75 157.75,-493.25 396.25,-493.25 396.25,-538.75"/>
<polygon fill="none" stroke="black" points="157.75,-493.25 157.75,-538.75 241.25,-538.75 241.25,-493.25 157.75,-493.25"/>
<text text-anchor="start" x="162.75" y="-519.25" font-family="Linux libertine" font-size="10.00">JinaBertAttention</text>
<text text-anchor="start" x="183" y="-506.5" font-family="Linux libertine" font-size="10.00">depth:3</text>
<polygon fill="none" stroke="black" points="241.25,-516 241.25,-538.75 285,-538.75 285,-516 241.25,-516"/>
<text text-anchor="start" x="250.75" y="-524.25" font-family="Linux libertine" font-size="10.00">input:</text>
<polygon fill="none" stroke="black" points="285,-516 285,-538.75 396.25,-538.75 396.25,-516 285,-516"/>
<text text-anchor="start" x="290" y="-524.25" font-family="Linux libertine" font-size="10.00">(1, 5, 512), (1, 1, 1, 5) </text>
<polygon fill="none" stroke="black" points="241.25,-493.25 241.25,-516 285,-516 285,-493.25 241.25,-493.25"/>
<text text-anchor="start" x="246.25" y="-501.5" font-family="Linux libertine" font-size="10.00">output: </text>
<polygon fill="none" stroke="black" points="285,-493.25 285,-516 396.25,-516 396.25,-493.25 285,-493.25"/>
<text text-anchor="start" x="316.25" y="-501.5" font-family="Linux libertine" font-size="10.00">(1, 5, 512) </text>
</g>
<!-- 6&#45;&gt;17 -->
<g id="edge20" class="edge">
<title>6&#45;&gt;17</title>
<path fill="none" stroke="black" d="M466.27,-1188.12C483.16,-1162.05 508,-1116.29 508,-1072.75 508,-1072.75 508,-1072.75 508,-617.75 508,-566.59 459.8,-541.15 407.44,-528.6"/>
<polygon fill="black" stroke="black" points="408.22,-525.19 397.7,-526.44 406.71,-532.02 408.22,-525.19"/>
</g>
<!-- 8 -->
<g id="node9" class="node">
<title>8</title>
<polygon fill="aliceblue" stroke="none" points="324,-1439 162,-1439 162,-1393.5 324,-1393.5 324,-1439"/>
<polygon fill="none" stroke="black" points="162,-1393.5 162,-1439 205,-1439 205,-1393.5 162,-1393.5"/>
<text text-anchor="start" x="175.62" y="-1419.5" font-family="Linux libertine" font-size="10.00">add</text>
<text text-anchor="start" x="167" y="-1406.75" font-family="Linux libertine" font-size="10.00">depth:2</text>
<polygon fill="none" stroke="black" points="205,-1416.25 205,-1439 248.75,-1439 248.75,-1416.25 205,-1416.25"/>
<text text-anchor="start" x="214.5" y="-1424.5" font-family="Linux libertine" font-size="10.00">input:</text>
<polygon fill="none" stroke="black" points="248.75,-1416.25 248.75,-1439 324,-1439 324,-1416.25 248.75,-1416.25"/>
<text text-anchor="start" x="253.75" y="-1424.5" font-family="Linux libertine" font-size="10.00">2 x (1, 5, 512) </text>
<polygon fill="none" stroke="black" points="205,-1393.5 205,-1416.25 248.75,-1416.25 248.75,-1393.5 205,-1393.5"/>
<text text-anchor="start" x="210" y="-1401.75" font-family="Linux libertine" font-size="10.00">output: </text>
<polygon fill="none" stroke="black" points="248.75,-1393.5 248.75,-1416.25 324,-1416.25 324,-1393.5 248.75,-1393.5"/>
<text text-anchor="start" x="262" y="-1401.75" font-family="Linux libertine" font-size="10.00">(1, 5, 512) </text>
</g>
<!-- 7&#45;&gt;8 -->
<g id="edge6" class="edge">
<title>7&#45;&gt;8</title>
<path fill="none" stroke="black" d="M243,-1486.49C243,-1475.72 243,-1462.44 243,-1450.4"/>
<polygon fill="black" stroke="black" points="246.5,-1450.43 243,-1440.43 239.5,-1450.43 246.5,-1450.43"/>
<text text-anchor="middle" x="249.38" y="-1458.75" font-family="Times New Roman,serif" font-size="10.00"> x2</text>
</g>
<!-- 9 -->
<g id="node10" class="node">
<title>9</title>
<polygon fill="aliceblue" stroke="none" points="324,-1336.25 162,-1336.25 162,-1290.75 324,-1290.75 324,-1336.25"/>
<polygon fill="none" stroke="black" points="162,-1290.75 162,-1336.25 221.5,-1336.25 221.5,-1290.75 162,-1290.75"/>
<text text-anchor="start" x="167" y="-1316.75" font-family="Linux libertine" font-size="10.00">layer_norm</text>
<text text-anchor="start" x="175.25" y="-1304" font-family="Linux libertine" font-size="10.00">depth:3</text>
<polygon fill="none" stroke="black" points="221.5,-1313.5 221.5,-1336.25 265.25,-1336.25 265.25,-1313.5 221.5,-1313.5"/>
<text text-anchor="start" x="231" y="-1321.75" font-family="Linux libertine" font-size="10.00">input:</text>
<polygon fill="none" stroke="black" points="265.25,-1313.5 265.25,-1336.25 324,-1336.25 324,-1313.5 265.25,-1313.5"/>
<text text-anchor="start" x="270.25" y="-1321.75" font-family="Linux libertine" font-size="10.00">(1, 5, 512) </text>
<polygon fill="none" stroke="black" points="221.5,-1290.75 221.5,-1313.5 265.25,-1313.5 265.25,-1290.75 221.5,-1290.75"/>
<text text-anchor="start" x="226.5" y="-1299" font-family="Linux libertine" font-size="10.00">output: </text>
<polygon fill="none" stroke="black" points="265.25,-1290.75 265.25,-1313.5 324,-1313.5 324,-1290.75 265.25,-1290.75"/>
<text text-anchor="start" x="270.25" y="-1299" font-family="Linux libertine" font-size="10.00">(1, 5, 512) </text>
</g>
<!-- 8&#45;&gt;9 -->
<g id="edge8" class="edge">
<title>8&#45;&gt;9</title>
<path fill="none" stroke="black" d="M243,-1393.88C243,-1380.35 243,-1362.58 243,-1347.29"/>
<polygon fill="black" stroke="black" points="246.5,-1347.7 243,-1337.7 239.5,-1347.7 246.5,-1347.7"/>
</g>
<!-- 10 -->
<g id="node11" class="node">
<title>10</title>
<polygon fill="aliceblue" stroke="none" points="315.75,-1233.5 170.25,-1233.5 170.25,-1188 315.75,-1188 315.75,-1233.5"/>
<polygon fill="none" stroke="black" points="170.25,-1188 170.25,-1233.5 213.25,-1233.5 213.25,-1188 170.25,-1188"/>
<text text-anchor="start" x="175.25" y="-1214" font-family="Linux libertine" font-size="10.00">dropout</text>
<text text-anchor="start" x="175.25" y="-1201.25" font-family="Linux libertine" font-size="10.00">depth:3</text>
<polygon fill="none" stroke="black" points="213.25,-1210.75 213.25,-1233.5 257,-1233.5 257,-1210.75 213.25,-1210.75"/>
<text text-anchor="start" x="222.75" y="-1219" font-family="Linux libertine" font-size="10.00">input:</text>
<polygon fill="none" stroke="black" points="257,-1210.75 257,-1233.5 315.75,-1233.5 315.75,-1210.75 257,-1210.75"/>
<text text-anchor="start" x="262" y="-1219" font-family="Linux libertine" font-size="10.00">(1, 5, 512) </text>
<polygon fill="none" stroke="black" points="213.25,-1188 213.25,-1210.75 257,-1210.75 257,-1188 213.25,-1188"/>
<text text-anchor="start" x="218.25" y="-1196.25" font-family="Linux libertine" font-size="10.00">output: </text>
<polygon fill="none" stroke="black" points="257,-1188 257,-1210.75 315.75,-1210.75 315.75,-1188 257,-1188"/>
<text text-anchor="start" x="262" y="-1196.25" font-family="Linux libertine" font-size="10.00">(1, 5, 512) </text>
</g>
<!-- 9&#45;&gt;10 -->
<g id="edge9" class="edge">
<title>9&#45;&gt;10</title>
<path fill="none" stroke="black" d="M243,-1291.13C243,-1277.6 243,-1259.83 243,-1244.54"/>
<polygon fill="black" stroke="black" points="246.5,-1244.95 243,-1234.95 239.5,-1244.95 246.5,-1244.95"/>
</g>
<!-- 10&#45;&gt;11 -->
<g id="edge10" class="edge">
<title>10&#45;&gt;11</title>
<path fill="none" stroke="black" d="M227.15,-1188.04C210.48,-1165.19 184.09,-1129.04 165.31,-1103.32"/>
<polygon fill="black" stroke="black" points="168.39,-1101.59 159.66,-1095.58 162.73,-1105.72 168.39,-1101.59"/>
</g>
<!-- 19 -->
<g id="node20" class="node">
<title>19</title>
<polygon fill="lightyellow" stroke="none" points="403.75,-1089.5 280.25,-1089.5 280.25,-1054 403.75,-1054 403.75,-1089.5"/>
<polygon fill="none" stroke="black" points="280.25,-1054 280.25,-1089.5 348,-1089.5 348,-1054 280.25,-1054"/>
<text text-anchor="start" x="285.25" y="-1075" font-family="Linux libertine" font-size="10.00">output&#45;tensor</text>
<text text-anchor="start" x="297.62" y="-1062.25" font-family="Linux libertine" font-size="10.00">depth:0</text>
<polygon fill="none" stroke="black" points="348,-1054 348,-1089.5 403.75,-1089.5 403.75,-1054 348,-1054"/>
<text text-anchor="start" x="353" y="-1068.62" font-family="Linux libertine" font-size="10.00">(1, 5, 512)</text>
</g>
<!-- 10&#45;&gt;19 -->
<g id="edge22" class="edge">
<title>10&#45;&gt;19</title>
<path fill="none" stroke="black" d="M258.69,-1188.04C276.28,-1163.69 304.8,-1124.22 323.48,-1098.38"/>
<polygon fill="black" stroke="black" points="326.21,-1100.58 329.23,-1090.42 320.53,-1096.48 326.21,-1100.58"/>
</g>
<!-- 12 -->
<g id="node13" class="node">
<title>12</title>
<polygon fill="#c1ffc1" stroke="none" points="235.25,-1012 50.75,-1012 50.75,-966.5 235.25,-966.5 235.25,-1012"/>
<polygon fill="none" stroke="black" points="50.75,-966.5 50.75,-1012 132.75,-1012 132.75,-966.5 50.75,-966.5"/>
<text text-anchor="start" x="55.75" y="-992.5" font-family="Linux libertine" font-size="10.00">JinaBertGLUMLP</text>
<text text-anchor="start" x="75.25" y="-979.75" font-family="Linux libertine" font-size="10.00">depth:3</text>
<polygon fill="none" stroke="black" points="132.75,-989.25 132.75,-1012 176.5,-1012 176.5,-989.25 132.75,-989.25"/>
<text text-anchor="start" x="142.25" y="-997.5" font-family="Linux libertine" font-size="10.00">input:</text>
<polygon fill="none" stroke="black" points="176.5,-989.25 176.5,-1012 235.25,-1012 235.25,-989.25 176.5,-989.25"/>
<text text-anchor="start" x="181.5" y="-997.5" font-family="Linux libertine" font-size="10.00">(1, 5, 512) </text>
<polygon fill="none" stroke="black" points="132.75,-966.5 132.75,-989.25 176.5,-989.25 176.5,-966.5 132.75,-966.5"/>
<text text-anchor="start" x="137.75" y="-974.75" font-family="Linux libertine" font-size="10.00">output: </text>
<polygon fill="none" stroke="black" points="176.5,-966.5 176.5,-989.25 235.25,-989.25 235.25,-966.5 176.5,-966.5"/>
<text text-anchor="start" x="181.5" y="-974.75" font-family="Linux libertine" font-size="10.00">(1, 5, 512) </text>
</g>
<!-- 11&#45;&gt;12 -->
<g id="edge12" class="edge">
<title>11&#45;&gt;12</title>
<path fill="none" stroke="black" d="M143,-1049.18C143,-1041.24 143,-1032.05 143,-1023.33"/>
<polygon fill="black" stroke="black" points="146.5,-1023.4 143,-1013.4 139.5,-1023.4 146.5,-1023.4"/>
</g>
<!-- 12&#45;&gt;13 -->
<g id="edge13" class="edge">
<title>12&#45;&gt;13</title>
<path fill="none" stroke="black" d="M178.63,-966.55C187.41,-960.9 196.67,-954.66 205,-948.5 218.36,-938.63 232.43,-927.01 244.55,-916.57"/>
<polygon fill="black" stroke="black" points="246.61,-919.42 251.86,-910.22 242.01,-914.14 246.61,-919.42"/>
</g>
<!-- 20 -->
<g id="node21" class="node">
<title>20</title>
<polygon fill="lightyellow" stroke="none" points="139.75,-904.25 16.25,-904.25 16.25,-868.75 139.75,-868.75 139.75,-904.25"/>
<polygon fill="none" stroke="black" points="16.25,-868.75 16.25,-904.25 84,-904.25 84,-868.75 16.25,-868.75"/>
<text text-anchor="start" x="21.25" y="-889.75" font-family="Linux libertine" font-size="10.00">output&#45;tensor</text>
<text text-anchor="start" x="33.62" y="-877" font-family="Linux libertine" font-size="10.00">depth:0</text>
<polygon fill="none" stroke="black" points="84,-868.75 84,-904.25 139.75,-904.25 139.75,-868.75 84,-868.75"/>
<text text-anchor="start" x="89" y="-883.38" font-family="Linux libertine" font-size="10.00">(1, 5, 512)</text>
</g>
<!-- 12&#45;&gt;20 -->
<g id="edge23" class="edge">
<title>12&#45;&gt;20</title>
<path fill="none" stroke="black" d="M129.22,-966.88C119.22,-951.39 105.63,-930.33 94.97,-913.8"/>
<polygon fill="black" stroke="black" points="97.94,-911.96 89.58,-905.45 92.06,-915.75 97.94,-911.96"/>
</g>
<!-- 14 -->
<g id="node15" class="node">
<title>14</title>
<polygon fill="#c1ffc1" stroke="none" points="369.25,-826.75 184.75,-826.75 184.75,-781.25 369.25,-781.25 369.25,-826.75"/>
<polygon fill="none" stroke="black" points="184.75,-781.25 184.75,-826.75 266.75,-826.75 266.75,-781.25 184.75,-781.25"/>
<text text-anchor="start" x="189.75" y="-807.25" font-family="Linux libertine" font-size="10.00">JinaBertGLUMLP</text>
<text text-anchor="start" x="209.25" y="-794.5" font-family="Linux libertine" font-size="10.00">depth:3</text>
<polygon fill="none" stroke="black" points="266.75,-804 266.75,-826.75 310.5,-826.75 310.5,-804 266.75,-804"/>
<text text-anchor="start" x="276.25" y="-812.25" font-family="Linux libertine" font-size="10.00">input:</text>
<polygon fill="none" stroke="black" points="310.5,-804 310.5,-826.75 369.25,-826.75 369.25,-804 310.5,-804"/>
<text text-anchor="start" x="315.5" y="-812.25" font-family="Linux libertine" font-size="10.00">(1, 5, 512) </text>
<polygon fill="none" stroke="black" points="266.75,-781.25 266.75,-804 310.5,-804 310.5,-781.25 266.75,-781.25"/>
<text text-anchor="start" x="271.75" y="-789.5" font-family="Linux libertine" font-size="10.00">output: </text>
<polygon fill="none" stroke="black" points="310.5,-781.25 310.5,-804 369.25,-804 369.25,-781.25 310.5,-781.25"/>
<text text-anchor="start" x="315.5" y="-789.5" font-family="Linux libertine" font-size="10.00">(1, 5, 512) </text>
</g>
<!-- 13&#45;&gt;14 -->
<g id="edge15" class="edge">
<title>13&#45;&gt;14</title>
<path fill="none" stroke="black" d="M277,-863.93C277,-855.99 277,-846.8 277,-838.08"/>
<polygon fill="black" stroke="black" points="280.5,-838.15 277,-828.15 273.5,-838.15 280.5,-838.15"/>
</g>
<!-- 14&#45;&gt;15 -->
<g id="edge16" class="edge">
<title>14&#45;&gt;15</title>
<path fill="none" stroke="black" d="M277,-781.63C277,-768.1 277,-750.33 277,-735.04"/>
<polygon fill="black" stroke="black" points="280.5,-735.45 277,-725.45 273.5,-735.45 280.5,-735.45"/>
</g>
<!-- 21 -->
<g id="node22" class="node">
<title>21</title>
<polygon fill="lightyellow" stroke="none" points="139.75,-719 16.25,-719 16.25,-683.5 139.75,-683.5 139.75,-719"/>
<polygon fill="none" stroke="black" points="16.25,-683.5 16.25,-719 84,-719 84,-683.5 16.25,-683.5"/>
<text text-anchor="start" x="21.25" y="-704.5" font-family="Linux libertine" font-size="10.00">output&#45;tensor</text>
<text text-anchor="start" x="33.62" y="-691.75" font-family="Linux libertine" font-size="10.00">depth:0</text>
<polygon fill="none" stroke="black" points="84,-683.5 84,-719 139.75,-719 139.75,-683.5 84,-683.5"/>
<text text-anchor="start" x="89" y="-698.12" font-family="Linux libertine" font-size="10.00">(1, 5, 512)</text>
</g>
<!-- 14&#45;&gt;21 -->
<g id="edge24" class="edge">
<title>14&#45;&gt;21</title>
<path fill="none" stroke="black" d="M206.97,-781.28C186.74,-773.87 165.01,-764.75 146,-754.25 131.69,-746.35 117.13,-735.64 105.17,-726"/>
<polygon fill="black" stroke="black" points="107.68,-723.53 97.75,-719.85 103.22,-728.93 107.68,-723.53"/>
</g>
<!-- 16 -->
<g id="node17" class="node">
<title>16</title>
<polygon fill="#c1ffc1" stroke="none" points="369.25,-641.5 184.75,-641.5 184.75,-596 369.25,-596 369.25,-641.5"/>
<polygon fill="none" stroke="black" points="184.75,-596 184.75,-641.5 266.75,-641.5 266.75,-596 184.75,-596"/>
<text text-anchor="start" x="189.75" y="-622" font-family="Linux libertine" font-size="10.00">JinaBertGLUMLP</text>
<text text-anchor="start" x="209.25" y="-609.25" font-family="Linux libertine" font-size="10.00">depth:3</text>
<polygon fill="none" stroke="black" points="266.75,-618.75 266.75,-641.5 310.5,-641.5 310.5,-618.75 266.75,-618.75"/>
<text text-anchor="start" x="276.25" y="-627" font-family="Linux libertine" font-size="10.00">input:</text>
<polygon fill="none" stroke="black" points="310.5,-618.75 310.5,-641.5 369.25,-641.5 369.25,-618.75 310.5,-618.75"/>
<text text-anchor="start" x="315.5" y="-627" font-family="Linux libertine" font-size="10.00">(1, 5, 512) </text>
<polygon fill="none" stroke="black" points="266.75,-596 266.75,-618.75 310.5,-618.75 310.5,-596 266.75,-596"/>
<text text-anchor="start" x="271.75" y="-604.25" font-family="Linux libertine" font-size="10.00">output: </text>
<polygon fill="none" stroke="black" points="310.5,-596 310.5,-618.75 369.25,-618.75 369.25,-596 310.5,-596"/>
<text text-anchor="start" x="315.5" y="-604.25" font-family="Linux libertine" font-size="10.00">(1, 5, 512) </text>
</g>
<!-- 15&#45;&gt;16 -->
<g id="edge18" class="edge">
<title>15&#45;&gt;16</title>
<path fill="none" stroke="black" d="M277,-678.68C277,-670.74 277,-661.55 277,-652.83"/>
<polygon fill="black" stroke="black" points="280.5,-652.9 277,-642.9 273.5,-652.9 280.5,-652.9"/>
</g>
<!-- 16&#45;&gt;17 -->
<g id="edge19" class="edge">
<title>16&#45;&gt;17</title>
<path fill="none" stroke="black" d="M277,-596.38C277,-582.85 277,-565.08 277,-549.79"/>
<polygon fill="black" stroke="black" points="280.5,-550.2 277,-540.2 273.5,-550.2 280.5,-550.2"/>
</g>
<!-- 22 -->
<g id="node23" class="node">
<title>22</title>
<polygon fill="lightyellow" stroke="none" points="139.75,-533.75 16.25,-533.75 16.25,-498.25 139.75,-498.25 139.75,-533.75"/>
<polygon fill="none" stroke="black" points="16.25,-498.25 16.25,-533.75 84,-533.75 84,-498.25 16.25,-498.25"/>
<text text-anchor="start" x="21.25" y="-519.25" font-family="Linux libertine" font-size="10.00">output&#45;tensor</text>
<text text-anchor="start" x="33.62" y="-506.5" font-family="Linux libertine" font-size="10.00">depth:0</text>
<polygon fill="none" stroke="black" points="84,-498.25 84,-533.75 139.75,-533.75 139.75,-498.25 84,-498.25"/>
<text text-anchor="start" x="89" y="-512.88" font-family="Linux libertine" font-size="10.00">(1, 5, 512)</text>
</g>
<!-- 16&#45;&gt;22 -->
<g id="edge25" class="edge">
<title>16&#45;&gt;22</title>
<path fill="none" stroke="black" d="M206.97,-596.03C186.74,-588.62 165.01,-579.5 146,-569 131.69,-561.1 117.13,-550.39 105.17,-540.75"/>
<polygon fill="black" stroke="black" points="107.68,-538.28 97.75,-534.6 103.22,-543.68 107.68,-538.28"/>
</g>
<!-- 18 -->
<g id="node19" class="node">
<title>18</title>
<polygon fill="#c1ffc1" stroke="none" points="369.25,-456.25 184.75,-456.25 184.75,-410.75 369.25,-410.75 369.25,-456.25"/>
<polygon fill="none" stroke="black" points="184.75,-410.75 184.75,-456.25 266.75,-456.25 266.75,-410.75 184.75,-410.75"/>
<text text-anchor="start" x="189.75" y="-436.75" font-family="Linux libertine" font-size="10.00">JinaBertGLUMLP</text>
<text text-anchor="start" x="209.25" y="-424" font-family="Linux libertine" font-size="10.00">depth:3</text>
<polygon fill="none" stroke="black" points="266.75,-433.5 266.75,-456.25 310.5,-456.25 310.5,-433.5 266.75,-433.5"/>
<text text-anchor="start" x="276.25" y="-441.75" font-family="Linux libertine" font-size="10.00">input:</text>
<polygon fill="none" stroke="black" points="310.5,-433.5 310.5,-456.25 369.25,-456.25 369.25,-433.5 310.5,-433.5"/>
<text text-anchor="start" x="315.5" y="-441.75" font-family="Linux libertine" font-size="10.00">(1, 5, 512) </text>
<polygon fill="none" stroke="black" points="266.75,-410.75 266.75,-433.5 310.5,-433.5 310.5,-410.75 266.75,-410.75"/>
<text text-anchor="start" x="271.75" y="-419" font-family="Linux libertine" font-size="10.00">output: </text>
<polygon fill="none" stroke="black" points="310.5,-410.75 310.5,-433.5 369.25,-433.5 369.25,-410.75 310.5,-410.75"/>
<text text-anchor="start" x="315.5" y="-419" font-family="Linux libertine" font-size="10.00">(1, 5, 512) </text>
</g>
<!-- 17&#45;&gt;18 -->
<g id="edge21" class="edge">
<title>17&#45;&gt;18</title>
<path fill="none" stroke="black" d="M277,-493.43C277,-485.49 277,-476.3 277,-467.58"/>
<polygon fill="black" stroke="black" points="280.5,-467.65 277,-457.65 273.5,-467.65 280.5,-467.65"/>
</g>
<!-- 23 -->
<g id="node24" class="node">
<title>23</title>
<polygon fill="aliceblue" stroke="none" points="243.88,-347.5 78.12,-347.5 78.12,-302 243.88,-302 243.88,-347.5"/>
<polygon fill="none" stroke="black" points="78.12,-302 78.12,-347.5 141.38,-347.5 141.38,-302 78.12,-302"/>
<text text-anchor="start" x="83.12" y="-328" font-family="Linux libertine" font-size="10.00">__getitem__</text>
<text text-anchor="start" x="93.25" y="-315.25" font-family="Linux libertine" font-size="10.00">depth:2</text>
<polygon fill="none" stroke="black" points="141.38,-324.75 141.38,-347.5 185.12,-347.5 185.12,-324.75 141.38,-324.75"/>
<text text-anchor="start" x="150.88" y="-333" font-family="Linux libertine" font-size="10.00">input:</text>
<polygon fill="none" stroke="black" points="185.12,-324.75 185.12,-347.5 243.88,-347.5 243.88,-324.75 185.12,-324.75"/>
<text text-anchor="start" x="190.12" y="-333" font-family="Linux libertine" font-size="10.00">(1, 5, 512) </text>
<polygon fill="none" stroke="black" points="141.38,-302 141.38,-324.75 185.12,-324.75 185.12,-302 141.38,-302"/>
<text text-anchor="start" x="146.38" y="-310.25" font-family="Linux libertine" font-size="10.00">output: </text>
<polygon fill="none" stroke="black" points="185.12,-302 185.12,-324.75 243.88,-324.75 243.88,-302 185.12,-302"/>
<text text-anchor="start" x="195.75" y="-310.25" font-family="Linux libertine" font-size="10.00">(1, 512) </text>
</g>
<!-- 18&#45;&gt;23 -->
<g id="edge26" class="edge">
<title>18&#45;&gt;23</title>
<path fill="none" stroke="black" d="M253.53,-410.9C236.07,-394.84 212.06,-372.74 192.88,-355.08"/>
<polygon fill="black" stroke="black" points="195.28,-352.54 185.55,-348.35 190.54,-357.69 195.28,-352.54"/>
</g>
<!-- 27 -->
<g id="node28" class="node">
<title>27</title>
<polygon fill="lightyellow" stroke="none" points="385.75,-342.5 262.25,-342.5 262.25,-307 385.75,-307 385.75,-342.5"/>
<polygon fill="none" stroke="black" points="262.25,-307 262.25,-342.5 330,-342.5 330,-307 262.25,-307"/>
<text text-anchor="start" x="267.25" y="-328" font-family="Linux libertine" font-size="10.00">output&#45;tensor</text>
<text text-anchor="start" x="279.62" y="-315.25" font-family="Linux libertine" font-size="10.00">depth:0</text>
<polygon fill="none" stroke="black" points="330,-307 330,-342.5 385.75,-342.5 385.75,-307 330,-307"/>
<text text-anchor="start" x="335" y="-321.62" font-family="Linux libertine" font-size="10.00">(1, 5, 512)</text>
</g>
<!-- 18&#45;&gt;27 -->
<g id="edge30" class="edge">
<title>18&#45;&gt;27</title>
<path fill="none" stroke="black" d="M286.51,-410.9C293.89,-394.15 304.15,-370.83 312.07,-352.84"/>
<polygon fill="black" stroke="black" points="315.22,-354.37 316.05,-343.81 308.82,-351.55 315.22,-354.37"/>
</g>
<!-- 24 -->
<g id="node25" class="node">
<title>24</title>
<polygon fill="aliceblue" stroke="none" points="228.12,-244.75 93.88,-244.75 93.88,-199.25 228.12,-199.25 228.12,-244.75"/>
<polygon fill="none" stroke="black" points="93.88,-199.25 93.88,-244.75 136.88,-244.75 136.88,-199.25 93.88,-199.25"/>
<text text-anchor="start" x="103.38" y="-225.25" font-family="Linux libertine" font-size="10.00">linear</text>
<text text-anchor="start" x="98.88" y="-212.5" font-family="Linux libertine" font-size="10.00">depth:3</text>
<polygon fill="none" stroke="black" points="136.88,-222 136.88,-244.75 180.62,-244.75 180.62,-222 136.88,-222"/>
<text text-anchor="start" x="146.38" y="-230.25" font-family="Linux libertine" font-size="10.00">input:</text>
<polygon fill="none" stroke="black" points="180.62,-222 180.62,-244.75 228.12,-244.75 228.12,-222 180.62,-222"/>
<text text-anchor="start" x="185.62" y="-230.25" font-family="Linux libertine" font-size="10.00">(1, 512) </text>
<polygon fill="none" stroke="black" points="136.88,-199.25 136.88,-222 180.62,-222 180.62,-199.25 136.88,-199.25"/>
<text text-anchor="start" x="141.88" y="-207.5" font-family="Linux libertine" font-size="10.00">output: </text>
<polygon fill="none" stroke="black" points="180.62,-199.25 180.62,-222 228.12,-222 228.12,-199.25 180.62,-199.25"/>
<text text-anchor="start" x="185.62" y="-207.5" font-family="Linux libertine" font-size="10.00">(1, 512) </text>
</g>
<!-- 23&#45;&gt;24 -->
<g id="edge27" class="edge">
<title>23&#45;&gt;24</title>
<path fill="none" stroke="black" d="M161,-302.38C161,-288.85 161,-271.08 161,-255.79"/>
<polygon fill="black" stroke="black" points="164.5,-256.2 161,-246.2 157.5,-256.2 164.5,-256.2"/>
</g>
<!-- 25 -->
<g id="node26" class="node">
<title>25</title>
<polygon fill="aliceblue" stroke="none" points="228.12,-142 93.88,-142 93.88,-96.5 228.12,-96.5 228.12,-142"/>
<polygon fill="none" stroke="black" points="93.88,-96.5 93.88,-142 136.88,-142 136.88,-96.5 93.88,-96.5"/>
<text text-anchor="start" x="106" y="-122.5" font-family="Linux libertine" font-size="10.00">tanh</text>
<text text-anchor="start" x="98.88" y="-109.75" font-family="Linux libertine" font-size="10.00">depth:3</text>
<polygon fill="none" stroke="black" points="136.88,-119.25 136.88,-142 180.62,-142 180.62,-119.25 136.88,-119.25"/>
<text text-anchor="start" x="146.38" y="-127.5" font-family="Linux libertine" font-size="10.00">input:</text>
<polygon fill="none" stroke="black" points="180.62,-119.25 180.62,-142 228.12,-142 228.12,-119.25 180.62,-119.25"/>
<text text-anchor="start" x="185.62" y="-127.5" font-family="Linux libertine" font-size="10.00">(1, 512) </text>
<polygon fill="none" stroke="black" points="136.88,-96.5 136.88,-119.25 180.62,-119.25 180.62,-96.5 136.88,-96.5"/>
<text text-anchor="start" x="141.88" y="-104.75" font-family="Linux libertine" font-size="10.00">output: </text>
<polygon fill="none" stroke="black" points="180.62,-96.5 180.62,-119.25 228.12,-119.25 228.12,-96.5 180.62,-96.5"/>
<text text-anchor="start" x="185.62" y="-104.75" font-family="Linux libertine" font-size="10.00">(1, 512) </text>
</g>
<!-- 24&#45;&gt;25 -->
<g id="edge28" class="edge">
<title>24&#45;&gt;25</title>
<path fill="none" stroke="black" d="M161,-199.63C161,-186.1 161,-168.33 161,-153.04"/>
<polygon fill="black" stroke="black" points="164.5,-153.45 161,-143.45 157.5,-153.45 164.5,-153.45"/>
</g>
<!-- 26 -->
<g id="node27" class="node">
<title>26</title>
<polygon fill="lightyellow" stroke="none" points="217.12,-59.5 104.88,-59.5 104.88,-24 217.12,-24 217.12,-59.5"/>
<polygon fill="none" stroke="black" points="104.88,-24 104.88,-59.5 172.62,-59.5 172.62,-24 104.88,-24"/>
<text text-anchor="start" x="109.88" y="-45" font-family="Linux libertine" font-size="10.00">output&#45;tensor</text>
<text text-anchor="start" x="122.25" y="-32.25" font-family="Linux libertine" font-size="10.00">depth:0</text>
<polygon fill="none" stroke="black" points="172.62,-24 172.62,-59.5 217.12,-59.5 217.12,-24 172.62,-24"/>
<text text-anchor="start" x="177.62" y="-38.62" font-family="Linux libertine" font-size="10.00">(1, 512)</text>
</g>
<!-- 25&#45;&gt;26 -->
<g id="edge29" class="edge">
<title>25&#45;&gt;26</title>
<path fill="none" stroke="black" d="M161,-96.82C161,-88.76 161,-79.47 161,-70.89"/>
<polygon fill="black" stroke="black" points="164.5,-70.95 161,-60.95 157.5,-70.95 164.5,-70.95"/>
</g>
</g>
</svg>
